v -1.7630 -0.2630 0.0000
v -1.7370 -0.2630 0.0000
v -1.7370 -0.2370 0.0000
v -1.7630 -0.2370 0.0000
v -1.7630 -0.2630 3.2000
v -1.7370 -0.2630 3.2000
v -1.7370 -0.2370 3.2000
v -1.7630 -0.2370 3.2000
v -1.2630 -0.2630 0.0000
v -1.2370 -0.2630 0.0000
v -1.2370 -0.2370 0.0000
v -1.2630 -0.2370 0.0000
v -1.2630 -0.2630 3.2000
v -1.2370 -0.2630 3.2000
v -1.2370 -0.2370 3.2000
v -1.2630 -0.2370 3.2000
v -0.7630 -0.2630 0.0000
v -0.7370 -0.2630 0.0000
v -0.7370 -0.2370 0.0000
v -0.7630 -0.2370 0.0000
v -0.7630 -0.2630 3.2000
v -0.7370 -0.2630 3.2000
v -0.7370 -0.2370 3.2000
v -0.7630 -0.2370 3.2000
v -0.2630 -0.2630 0.0000
v -0.2370 -0.2630 0.0000
v -0.2370 -0.2370 0.0000
v -0.2630 -0.2370 0.0000
v -0.2630 -0.2630 3.2000
v -0.2370 -0.2630 3.2000
v -0.2370 -0.2370 3.2000
v -0.2630 -0.2370 3.2000
v 0.2370 -0.2630 0.0000
v 0.2630 -0.2630 0.0000
v 0.2630 -0.2370 0.0000
v 0.2370 -0.2370 0.0000
v 0.2370 -0.2630 3.2000
v 0.2630 -0.2630 3.2000
v 0.2630 -0.2370 3.2000
v 0.2370 -0.2370 3.2000
v 0.7370 -0.2630 0.0000
v 0.7630 -0.2630 0.0000
v 0.7630 -0.2370 0.0000
v 0.7370 -0.2370 0.0000
v 0.7370 -0.2630 3.2000
v 0.7630 -0.2630 3.2000
v 0.7630 -0.2370 3.2000
v 0.7370 -0.2370 3.2000
v 1.2370 -0.2630 0.0000
v 1.2630 -0.2630 0.0000
v 1.2630 -0.2370 0.0000
v 1.2370 -0.2370 0.0000
v 1.2370 -0.2630 3.2000
v 1.2630 -0.2630 3.2000
v 1.2630 -0.2370 3.2000
v 1.2370 -0.2370 3.2000
v 1.7370 -0.2630 0.0000
v 1.7630 -0.2630 0.0000
v 1.7630 -0.2370 0.0000
v 1.7370 -0.2370 0.0000
v 1.7370 -0.2630 3.2000
v 1.7630 -0.2630 3.2000
v 1.7630 -0.2370 3.2000
v 1.7370 -0.2370 3.2000
v -1.7630 0.2370 0.0000
v -1.7370 0.2370 0.0000
v -1.7370 0.2630 0.0000
v -1.7630 0.2630 0.0000
v -1.7630 0.2370 3.2000
v -1.7370 0.2370 3.2000
v -1.7370 0.2630 3.2000
v -1.7630 0.2630 3.2000
v -1.2630 0.2370 0.0000
v -1.2370 0.2370 0.0000
v -1.2370 0.2630 0.0000
v -1.2630 0.2630 0.0000
v -1.2630 0.2370 3.2000
v -1.2370 0.2370 3.2000
v -1.2370 0.2630 3.2000
v -1.2630 0.2630 3.2000
v -0.7630 0.2370 0.0000
v -0.7370 0.2370 0.0000
v -0.7370 0.2630 0.0000
v -0.7630 0.2630 0.0000
v -0.7630 0.2370 3.2000
v -0.7370 0.2370 3.2000
v -0.7370 0.2630 3.2000
v -0.7630 0.2630 3.2000
v -0.2630 0.2370 0.0000
v -0.2370 0.2370 0.0000
v -0.2370 0.2630 0.0000
v -0.2630 0.2630 0.0000
v -0.2630 0.2370 3.2000
v -0.2370 0.2370 3.2000
v -0.2370 0.2630 3.2000
v -0.2630 0.2630 3.2000
v 0.2370 0.2370 0.0000
v 0.2630 0.2370 0.0000
v 0.2630 0.2630 0.0000
v 0.2370 0.2630 0.0000
v 0.2370 0.2370 3.2000
v 0.2630 0.2370 3.2000
v 0.2630 0.2630 3.2000
v 0.2370 0.2630 3.2000
v 0.7370 0.2370 0.0000
v 0.7630 0.2370 0.0000
v 0.7630 0.2630 0.0000
v 0.7370 0.2630 0.0000
v 0.7370 0.2370 3.2000
v 0.7630 0.2370 3.2000
v 0.7630 0.2630 3.2000
v 0.7370 0.2630 3.2000
v 1.2370 0.2370 0.0000
v 1.2630 0.2370 0.0000
v 1.2630 0.2630 0.0000
v 1.2370 0.2630 0.0000
v 1.2370 0.2370 3.2000
v 1.2630 0.2370 3.2000
v 1.2630 0.2630 3.2000
v 1.2370 0.2630 3.2000
v 1.7370 0.2370 0.0000
v 1.7630 0.2370 0.0000
v 1.7630 0.2630 0.0000
v 1.7370 0.2630 0.0000
v 1.7370 0.2370 3.2000
v 1.7630 0.2370 3.2000
v 1.7630 0.2630 3.2000
v 1.7370 0.2630 3.2000
f 1 4 3 2
f 5 6 7 8
f 1 2 6 5
f 4 8 7 3
f 1 5 8 4
f 2 3 7 6
f 9 12 11 10
f 13 14 15 16
f 9 10 14 13
f 12 16 15 11
f 9 13 16 12
f 10 11 15 14
f 17 20 19 18
f 21 22 23 24
f 17 18 22 21
f 20 24 23 19
f 17 21 24 20
f 18 19 23 22
f 25 28 27 26
f 29 30 31 32
f 25 26 30 29
f 28 32 31 27
f 25 29 32 28
f 26 27 31 30
f 33 36 35 34
f 37 38 39 40
f 33 34 38 37
f 36 40 39 35
f 33 37 40 36
f 34 35 39 38
f 41 44 43 42
f 45 46 47 48
f 41 42 46 45
f 44 48 47 43
f 41 45 48 44
f 42 43 47 46
f 49 52 51 50
f 53 54 55 56
f 49 50 54 53
f 52 56 55 51
f 49 53 56 52
f 50 51 55 54
f 57 60 59 58
f 61 62 63 64
f 57 58 62 61
f 60 64 63 59
f 57 61 64 60
f 58 59 63 62
f 65 68 67 66
f 69 70 71 72
f 65 66 70 69
f 68 72 71 67
f 65 69 72 68
f 66 67 71 70
f 73 76 75 74
f 77 78 79 80
f 73 74 78 77
f 76 80 79 75
f 73 77 80 76
f 74 75 79 78
f 81 84 83 82
f 85 86 87 88
f 81 82 86 85
f 84 88 87 83
f 81 85 88 84
f 82 83 87 86
f 89 92 91 90
f 93 94 95 96
f 89 90 94 93
f 92 96 95 91
f 89 93 96 92
f 90 91 95 94
f 97 100 99 98
f 101 102 103 104
f 97 98 102 101
f 100 104 103 99
f 97 101 104 100
f 98 99 103 102
f 105 108 107 106
f 109 110 111 112
f 105 106 110 109
f 108 112 111 107
f 105 109 112 108
f 106 107 111 110
f 113 116 115 114
f 117 118 119 120
f 113 114 118 117
f 116 120 119 115
f 113 117 120 116
f 114 115 119 118
f 121 124 123 122
f 125 126 127 128
f 121 122 126 125
f 124 128 127 123
f 121 125 128 124
f 122 123 127 126
